<?xml version="1.0" standalone="no"?>
<!DOCTYPE svg PUBLIC "-//W3C//DTD SVG 20010904//EN"
 "http://www.w3.org/TR/2001/REC-SVG-20010904/DTD/svg10.dtd">
<svg version="1.0" xmlns="http://www.w3.org/2000/svg"
 width="700.000000pt" height="700.000000pt" viewBox="0 0 700.000000 700.000000"
 preserveAspectRatio="xMidYMid meet">
<metadata>
Created by potrace 1.11, written by Peter Selinger 2001-2013
</metadata>
<g transform="translate(0.000000,700.000000) scale(0.100000,-0.100000)"
fill="#000000" stroke="none">
<path d="M3400 6293 c-59 -9 -166 -49 -220 -82 -106 -65 -149 -113 -217 -241
-33 -61 -225 -411 -341 -620 -13 -25 -40 -74 -60 -110 -19 -36 -110 -200 -200
-365 -91 -165 -177 -322 -192 -350 -15 -27 -38 -70 -52 -95 -14 -25 -166 -301
-338 -615 -172 -313 -323 -588 -335 -610 -13 -22 -87 -157 -165 -300 -78 -143
-154 -280 -167 -305 -14 -25 -44 -79 -66 -120 -22 -41 -74 -136 -115 -210 -41
-74 -87 -157 -102 -185 -15 -27 -50 -90 -77 -140 -27 -49 -67 -121 -88 -160
-21 -38 -54 -99 -75 -135 -20 -36 -36 -77 -34 -90 1 -14 -5 -49 -13 -78 -59
-210 55 -450 262 -552 120 -59 -38 -56 2700 -54 1386 1 2538 4 2559 7 71 11
179 71 243 133 159 156 196 412 88 610 -20 38 -53 98 -73 134 -19 36 -47 88
-62 115 -57 104 -355 653 -393 725 -22 41 -43 80 -47 85 -4 6 -25 44 -47 85
-22 41 -84 156 -138 255 -54 99 -113 209 -133 245 -19 36 -61 112 -92 170 -31
58 -74 137 -95 175 -21 39 -65 120 -98 180 -103 189 -168 309 -319 590 -39 72
-78 144 -88 160 -9 17 -39 71 -65 120 -27 50 -72 133 -100 185 -29 52 -68 124
-87 160 -19 36 -132 243 -250 460 -118 217 -241 443 -273 502 -32 59 -76 126
-99 149 -76 76 -172 131 -281 159 -49 12 -205 20 -255 13z m205 -364 c68 -25
55 -6 275 -409 95 -173 185 -337 200 -365 15 -27 44 -81 65 -120 21 -38 45
-83 55 -100 10 -16 34 -61 55 -100 21 -38 73 -133 115 -210 43 -77 93 -169
112 -205 20 -36 47 -85 60 -110 32 -58 55 -99 233 -425 81 -148 159 -290 173
-315 13 -25 40 -74 60 -110 19 -36 108 -198 197 -360 89 -162 179 -326 200
-365 21 -38 48 -88 60 -110 70 -128 380 -694 422 -770 28 -49 69 -126 93 -170
24 -44 61 -111 84 -150 37 -64 40 -76 40 -140 0 -79 -18 -115 -77 -150 -31
-19 -87 -20 -2538 -20 l-2505 0 -37 25 c-39 26 -75 85 -72 117 1 10 9 35 18
57 10 21 17 43 17 48 0 11 39 90 94 191 19 34 136 249 261 477 125 228 243
444 262 480 20 36 48 88 63 115 15 28 69 127 120 220 51 94 105 193 120 220
39 71 497 909 533 975 16 30 41 75 55 100 13 25 39 72 57 105 18 33 98 179
177 325 80 146 160 292 178 325 415 764 482 881 514 903 63 43 177 53 261 21z"/>
<path d="M3478 4725 c-2 -2 -21 -5 -43 -8 -105 -15 -197 -83 -247 -185 l-33
-67 -2 -690 c-3 -677 -2 -692 18 -745 57 -151 183 -233 347 -225 158 7 279
101 317 246 21 80 22 1339 0 1418 -38 144 -154 238 -312 254 -23 2 -44 3 -45
2z"/>
<path d="M3423 2440 c-180 -38 -305 -233 -263 -412 18 -74 42 -119 94 -172
138 -140 355 -139 494 1 142 144 128 389 -29 514 -80 63 -196 90 -296 69z"/>
</g>
</svg>
