<?xml version="1.0" encoding="utf-8"?>
<!-- Generator: Adobe Illustrator 16.0.0, SVG Export Plug-In . SVG Version: 6.00 Build 0)  -->
<!DOCTYPE svg PUBLIC "-//W3C//DTD SVG 1.1//EN" "http://www.w3.org/Graphics/SVG/1.1/DTD/svg11.dtd">
<svg version="1.1" id="Layer_1" xmlns="http://www.w3.org/2000/svg" xmlns:xlink="http://www.w3.org/1999/xlink" x="0px" y="0px"
	 width="24px" height="24px" viewBox="0 0 24 24" style="enable-background:new 0 0 24 24;" xml:space="preserve">
<g>
	<g>
		<path style="fill-rule:evenodd;clip-rule:evenodd;fill:#8B93A3;" d="M12,0C5.4,0,0,5.4,0,12s5.4,12,12,12c6.6,0,12-5.4,12-12
			S18.6,0,12,0z M12,22C6.5,22,2,17.5,2,12C2,6.5,6.5,2,12,2c5.5,0,10,4.5,10,10C22,17.5,17.5,22,12,22z M16.7,7.3
			c-0.4-0.4-1-0.4-1.4,0L12,10.6L8.7,7.3c-0.4-0.4-1-0.4-1.4,0c-0.4,0.4-0.4,1,0,1.4l3.3,3.3l-3.3,3.3c-0.4,0.4-0.4,1,0,1.4
			c0.4,0.4,1,0.4,1.4,0l3.3-3.3l3.3,3.3c0.4,0.4,1,0.4,1.4,0c0.4-0.4,0.4-1,0-1.4L13.4,12l3.3-3.3C17.1,8.3,17.1,7.7,16.7,7.3z"/>
	</g>
</g>
</svg>
